<svg width="39" height="39" viewBox="0 0 39 39" fill="none" xmlns="http://www.w3.org/2000/svg">
<path d="M18.7156 9.35491C18.7156 4.19118 14.5244 0 9.35491 0C4.18539 0 0 4.19118 0 9.35491C0 14.5186 4.19118 18.7098 9.35491 18.7098H18.7098V9.35491H18.7156Z" fill="white"/>
<path d="M9 13.1V6H9.9V13.1H9Z" fill="#1A365C"/>
<path d="M29.6449 18.7156C34.8145 18.7156 38.9999 14.5244 38.9999 9.36069C38.9999 4.19697 34.8087 0 29.6449 0C24.4812 0 20.29 4.19118 20.29 9.35491V18.7098H29.6449V18.7156Z" fill="white"/>
<path d="M27.9 7.66V13.1H27V6H27.76L32.1 11.55V6.01H33V13.1H32.18L27.9 7.66Z" fill="#1A365C"/>
<path d="M9.35491 20.2852C4.19118 20.2852 0 24.4763 0 29.6458C0 34.8154 4.19118 39.0008 9.35491 39.0008C14.5186 39.0008 18.7098 34.8096 18.7098 29.6458V20.2909H9.35491V20.2852Z" fill="white"/>
<path d="M11.73 27.54C11.65 27.4467 11.5433 27.3567 11.41 27.27C11.2767 27.1833 11.1267 27.1067 10.96 27.04C10.7933 26.9667 10.61 26.91 10.41 26.87C10.2167 26.8233 10.0133 26.8 9.8 26.8C9.25333 26.8 8.85 26.9033 8.59 27.11C8.33 27.3167 8.2 27.6 8.2 27.96C8.2 28.2133 8.26667 28.4133 8.4 28.56C8.53333 28.7067 8.73667 28.8267 9.01 28.92C9.29 29.0133 9.64333 29.11 10.07 29.21C10.5633 29.3167 10.99 29.4467 11.35 29.6C11.71 29.7533 11.9867 29.96 12.18 30.22C12.3733 30.4733 12.47 30.8133 12.47 31.24C12.47 31.58 12.4033 31.8767 12.27 32.13C12.1433 32.3767 11.9633 32.5833 11.73 32.75C11.4967 32.91 11.2233 33.03 10.91 33.11C10.5967 33.1833 10.2567 33.22 9.89 33.22C9.53 33.22 9.17667 33.1833 8.83 33.11C8.49 33.03 8.16667 32.9167 7.86 32.77C7.55333 32.6233 7.26667 32.44 7 32.22L7.43 31.46C7.53667 31.5733 7.67333 31.6867 7.84 31.8C8.01333 31.9067 8.20667 32.0067 8.42 32.1C8.64 32.1933 8.87667 32.27 9.13 32.33C9.38333 32.3833 9.64333 32.41 9.91 32.41C10.4167 32.41 10.81 32.32 11.09 32.14C11.37 31.9533 11.51 31.6833 11.51 31.33C11.51 31.0633 11.43 30.85 11.27 30.69C11.1167 30.53 10.8867 30.3967 10.58 30.29C10.2733 30.1833 9.9 30.0767 9.46 29.97C8.98 29.85 8.57667 29.72 8.25 29.58C7.92333 29.4333 7.67667 29.2433 7.51 29.01C7.35 28.7767 7.27 28.4733 7.27 28.1C7.27 27.6467 7.38 27.2633 7.6 26.95C7.82 26.6367 8.12333 26.4 8.51 26.24C8.89667 26.08 9.33333 26 9.82 26C10.14 26 10.4367 26.0333 10.71 26.1C10.99 26.1667 11.25 26.26 11.49 26.38C11.73 26.5 11.95 26.6433 12.15 26.81L11.73 27.54Z" fill="#1A365C"/>
<path d="M20.2842 29.644C20.2842 34.8135 24.4754 38.9989 29.6391 38.9989C34.8028 38.9989 38.994 34.8077 38.994 29.644C38.994 24.4802 34.8028 20.2891 29.6391 20.2891H20.2842V29.644Z" fill="white"/>
<path d="M30.03 33.15C29.4633 33.15 28.9867 33.0533 28.6 32.86C28.2133 32.66 27.9033 32.3933 27.67 32.06C27.4367 31.72 27.2667 31.3367 27.16 30.91C27.0533 30.4833 27 30.0433 27 29.59V26H27.9V29.59C27.9 29.9367 27.9333 30.2767 28 30.61C28.0733 30.9367 28.19 31.23 28.35 31.49C28.51 31.75 28.7267 31.9567 29 32.11C29.2733 32.2633 29.6133 32.34 30.02 32.34C30.4333 32.34 30.7767 32.2633 31.05 32.11C31.3233 31.95 31.54 31.74 31.7 31.48C31.86 31.2133 31.9733 30.9167 32.04 30.59C32.1133 30.2633 32.15 29.93 32.15 29.59V26H33.05V29.59C33.05 30.07 32.9933 30.5267 32.88 30.96C32.7733 31.3867 32.6 31.7633 32.36 32.09C32.12 32.4167 31.8067 32.6767 31.42 32.87C31.04 33.0567 30.5767 33.15 30.03 33.15Z" fill="#1A365C"/>
</svg>
