<svg width="36" height="36" viewBox="0 0 36 36" fill="none" xmlns="http://www.w3.org/2000/svg">
<g clip-path="url(#clip0_7253_13569)">
<path d="M12.8582 33.048C15.6137 33.048 17.8501 30.8007 17.8501 28.0318V23.0156H12.8582C10.1026 23.0156 7.86621 25.2629 7.86621 28.0318C7.86621 30.8007 10.1026 33.048 12.8582 33.048Z" fill="#0ACF83"/>
<path d="M7.86621 18.0006C7.86621 15.2316 10.1026 12.9844 12.8582 12.9844H17.8501V23.0167H12.8582C10.1026 23.0167 7.86621 20.7695 7.86621 18.0006Z" fill="#A259FF"/>
<path d="M7.86621 7.96931C7.86621 5.20037 10.1026 2.95312 12.8582 2.95312H17.8501V12.9855H12.8582C10.1026 12.9855 7.86621 10.7382 7.86621 7.96931Z" fill="#F24E1E"/>
<path d="M17.8501 2.95312H22.842C25.5976 2.95312 27.834 5.20037 27.834 7.96931C27.834 10.7382 25.5976 12.9855 22.842 12.9855H17.8501V2.95312Z" fill="#FF7262"/>
<path d="M27.834 18.0006C27.834 20.7695 25.5976 23.0167 22.842 23.0167C20.0865 23.0167 17.8501 20.7695 17.8501 18.0006C17.8501 15.2316 20.0865 12.9844 22.842 12.9844C25.5976 12.9844 27.834 15.2316 27.834 18.0006Z" fill="#1ABCFE"/>
</g>
<defs>
<clipPath id="clip0_7253_13569">
<rect width="20" height="30" fill="white" transform="translate(7.8501 3)"/>
</clipPath>
</defs>
</svg>
