<svg width="36" height="36" viewBox="0 0 36 36" fill="none" xmlns="http://www.w3.org/2000/svg">
<g clip-path="url(#clip0_7253_15663)">
<path fill-rule="evenodd" clip-rule="evenodd" d="M17.9991 3.3125C9.71625 3.3125 3 10.0545 3 18.373C3 25.0255 7.2975 30.6699 13.2591 32.6616C14.0091 32.7999 14.2828 32.3349 14.2828 31.936C14.2828 31.5784 14.2697 30.6315 14.2622 29.375C10.0894 30.2851 9.20906 27.3561 9.20906 27.3561C8.5275 25.6168 7.54406 25.1537 7.54406 25.1537C6.18188 24.219 7.64719 24.238 7.64719 24.238C9.15187 24.3444 9.94406 25.79 9.94406 25.79C11.2828 28.0913 13.455 27.4269 14.31 27.0409C14.4459 26.0677 14.8341 25.404 15.2625 25.0276C11.9316 24.6474 8.43 23.356 8.43 17.5855C8.43 15.9411 9.01406 14.5972 9.97406 13.5439C9.81938 13.1628 9.30469 11.6323 10.1203 9.55883C10.1203 9.55883 11.3803 9.15406 14.2453 11.1024C15.4425 10.7682 16.725 10.6018 18.0009 10.595C19.275 10.6016 20.5584 10.7682 21.7566 11.1024C24.6197 9.15406 25.8769 9.55883 25.8769 9.55883C26.6953 11.6323 26.1806 13.1628 26.0259 13.5439C26.9878 14.5972 27.5681 15.9411 27.5681 17.5855C27.5681 23.3701 24.0609 24.6437 20.7197 25.0163C21.2578 25.4813 21.7378 26.3998 21.7378 27.8052C21.7378 29.8184 21.7191 31.442 21.7191 31.9363C21.7191 32.3391 21.9891 32.8079 22.7503 32.66C28.7062 30.6643 33 25.0236 33 18.373C33 10.0545 26.2837 3.3125 17.9991 3.3125Z" fill="white"/>
</g>
<defs>
<clipPath id="clip0_7253_15663">
<rect width="30" height="30" fill="white" transform="translate(3 3)"/>
</clipPath>
</defs>
</svg>
